<svg xmlns="http://www.w3.org/2000/svg" viewBox="0 0 128.99 18.77"><defs><style>.cls-1{fill:#fff;}</style></defs><title>Asset 1</title><g id="Layer_2" data-name="Layer 2"><g id="Blue_Black" data-name="Blue Black"><path class="cls-1" d="M126.76,13.58a2,2,0,1,1-2.09,2A2,2,0,0,1,126.76,13.58Zm0,3.63a1.6,1.6,0,1,0-1.53-1.61A1.55,1.55,0,0,0,126.76,17.21Zm-.81-2.74h.86c.57,0,.89.18.89.67a.57.57,0,0,1-.6.61l.61,1h-.47l-.55-1h-.28v1h-.45Zm.45.95h.4c.26,0,.45,0,.45-.32s-.26-.28-.47-.28h-.38Z"/><path class="cls-1" d="M55.49,4.2l1.1,3.49H43.89c-.51,0-.77.18-.77.54s.25.54.77.54h6.85A6.76,6.76,0,0,1,54.82,10a3.92,3.92,0,0,1,1.7,3.28,3.8,3.8,0,0,1-1.72,3.23,6.7,6.7,0,0,1-4.07,1.18H36.93l2.69-3.47H50.73A3,3,0,0,0,51.91,14c.45-.19.67-.44.67-.76s-.22-.59-.67-.76a3.36,3.36,0,0,0-1.18-.19H43.89a6.58,6.58,0,0,1-3.81-1,3.52,3.52,0,0,1,0-6,6.59,6.59,0,0,1,3.81-1Z"/><path class="cls-1" d="M81.33,4.2,77.84,16.14A2.28,2.28,0,0,1,77,17.33a2.5,2.5,0,0,1-1.55.52,2.74,2.74,0,0,1-2.3-1.57l-4.1-6.7-4.12,6.7a2.71,2.71,0,0,1-2.27,1.57,2.46,2.46,0,0,1-1.52-.5,2.33,2.33,0,0,1-.87-1.21L56.78,4.2h4.57l1.77,7.11,3.77-6.06A2.31,2.31,0,0,1,68.94,4a2.75,2.75,0,0,1,1.32.33,2.54,2.54,0,0,1,1,.86L75,11.31,76.74,4.2Z"/><path class="cls-1" d="M94.07,14.18l-2.69,3.47H78.84L82.58,4.2h18.58L98.47,7.69H85.89L85.54,9.1H97.67L95,12.57H84.47L84,14.18Z"/><path class="cls-1" d="M99.45,17.65,102,14.16h5.61L104.1,9.33,98,17.65H92.87l8.62-12a3.7,3.7,0,0,1,1.14-1,3,3,0,0,1,1.55-.48,2.93,2.93,0,0,1,1.55.48,3.78,3.78,0,0,1,1.12,1l8.41,12Z"/><path class="cls-1" d="M129,4.2l-2.71,3.49h-4.91v10H117.2v-10h-7.48L107.16,4.2Z"/><path class="cls-1" d="M16,15.91q0,1.83-1.66,1.83a3.53,3.53,0,0,1-2.28-.9L4.18,10.26v7.39H0V5.93A1.69,1.69,0,0,1,.48,4.7a1.81,1.81,0,0,1,1.35-.49A3.25,3.25,0,0,1,3.94,5l7.87,6.58V4.2H16Z"/><path class="cls-1" d="M27.64,3.53A63.09,63.09,0,0,1,34,5.93,4.85,4.85,0,0,1,36.82,9,7.41,7.41,0,0,1,36,15.11c-1.22,1.67-3.87,3.66-8.67,3.66s-7.68-2.1-8.74-3.43a6.61,6.61,0,0,1-.9-5.41A4.84,4.84,0,0,1,19,7.72a5.41,5.41,0,0,1,4.59-1,7,7,0,0,0-1.89,1.14,3.21,3.21,0,0,0-1.07,3.17c.27,2.75,3.6,3.39,6.78,3.39,2.19,0,5.37-.76,5.37-3.52,0-1.27-1.28-1.59-3.23-2.24-5-1.66-7.65-3-7.65-5.31,0-3.21,6-3.38,6-3.38C24.43,1.55,25.73,2.84,27.64,3.53Zm1.47,1c3.66,2,5.89,2.94,5.9,6.74,0,5.55-6.85,7.09-6.85,7.09s8.13-.26,8.33-7a5.83,5.83,0,0,0-1.13-3.64C33.8,5.88,30.82,5.17,29.11,4.52Z"/></g></g></svg>